<svg xmlns="http://www.w3.org/2000/svg" viewBox="0 0 884.79 886.76"><defs><style>.cls-1{fill:#fff;}</style></defs><g id="图层_2" data-name="图层 2"><g id="logo"><path class="cls-1" d="M714.36,264.92a10.11,10.11,0,0,0,2.2-3.56A761.35,761.35,0,0,0,762,15.7a10,10,0,0,0-12.34-9.87q-55.55,13.43-113.41,22A10,10,0,0,0,628,40a310.16,310.16,0,0,1,3.5,124C577.65,105.78,516.24,51.5,448.27,1.92a10,10,0,0,0-11.77,0c-67.77,49.44-129,103.54-182.78,161.58A309.88,309.88,0,0,1,257.4,39.55a10,10,0,0,0-8.23-12.15Q191.29,18.73,135.64,5.11A10,10,0,0,0,123.27,15a761.46,761.46,0,0,0,45.48,246.38,10,10,0,0,0,1.92,3.22C64.27,411.59,3,578.33,0,755.21a10,10,0,0,0,12.06,9.93q81-17.28,165.64-28a10,10,0,0,0,8.42-12.54,328.5,328.5,0,0,1-11.73-86.91c0-148.09,100-317.79,253.8-401.18a29.82,29.82,0,0,1,28.38,0c153.85,83.39,253.81,253.09,253.81,401.18A328.44,328.44,0,0,1,698.51,725a10,10,0,0,0,8.39,12.55Q791.53,748.48,872.71,766a10,10,0,0,0,12.08-9.91C882,579,820.79,412.11,714.36,264.92Z"/><path class="cls-1" d="M504.82,603.88q-28.32,27.76-59.22,53.59a5,5,0,0,1-6.42,0q-30.9-25.8-59.24-53.6a5,5,0,0,0-8.42,2.75A369.76,369.76,0,0,0,366.88,665c0,80.79,26.19,156.13,71.42,219.63a5,5,0,0,0,8.16,0c45.23-63.5,71.42-138.84,71.42-219.63a368.45,368.45,0,0,0-4.64-58.4A5,5,0,0,0,504.82,603.88Z"/><path class="cls-1" d="M560.58,332.63a10,10,0,0,0-14.26.46c-27.72,30.44-61,57.21-98.55,79.28a10.09,10.09,0,0,1-10.21,0C400,390.29,366.71,363.52,339,333.08a10,10,0,0,0-14.25-.46,516.22,516.22,0,0,0-71.85,86.05,10,10,0,0,0-.1,11C302,505.45,363.94,574.74,436.19,635.59a10,10,0,0,0,12.94,0c72.24-60.84,134.15-130.13,183.38-205.91a10,10,0,0,0-.09-11A516.23,516.23,0,0,0,560.58,332.63Z"/></g></g></svg>