<svg id="a6c3eca5-4acd-476f-bde5-e9ca1bfd0e38" data-name="logo" xmlns="http://www.w3.org/2000/svg" viewBox="0 0 1024 1024"><defs><style>.a99ee698-222a-41f7-80c4-6641b79fb537{fill:#fff;}</style></defs><path class="a99ee698-222a-41f7-80c4-6641b79fb537" d="M735.86,364.91a8.13,8.13,0,0,0,1.82-2.94,626.76,626.76,0,0,0,37.44-202.22A8.23,8.23,0,0,0,765,151.63q-45.72,11-93.35,18.1a8.21,8.21,0,0,0-6.8,10,255.43,255.43,0,0,1,2.88,102.13c-44.34-47.94-94.89-92.62-150.84-133.44a8.21,8.21,0,0,0-9.69,0c-55.79,40.7-106.21,85.24-150.46,133a255.34,255.34,0,0,1,3-102.05,8.21,8.21,0,0,0-6.78-10Q305.3,162.24,259.49,151a8.22,8.22,0,0,0-10.18,8.1A626.62,626.62,0,0,0,286.75,362a8,8,0,0,0,1.59,2.67c-87.59,121-138.07,258.28-140.5,403.87a8.22,8.22,0,0,0,9.92,8.18q66.7-14.22,136.36-23.09A8.23,8.23,0,0,0,301,743.25a270.41,270.41,0,0,1-9.65-71.54c0-121.9,82.28-261.59,208.92-330.23a24.51,24.51,0,0,1,23.36,0c126.64,68.64,208.92,208.33,208.92,330.23a270.15,270.15,0,0,1-9.77,71.95A8.24,8.24,0,0,0,729.73,754q69.66,9,136.49,23.4a8.21,8.21,0,0,0,9.94-8.15C873.89,623.48,823.46,486.08,735.86,364.91Z"/><path class="a99ee698-222a-41f7-80c4-6641b79fb537" d="M563.39,643.92Q540.08,666.78,514.64,688a4.15,4.15,0,0,1-5.29,0q-25.43-21.24-48.76-44.12a4.11,4.11,0,0,0-6.93,2.26,304.5,304.5,0,0,0-3.82,48.08c0,66.51,21.56,128.52,58.79,180.79a4.12,4.12,0,0,0,6.72,0c37.23-52.27,58.79-114.28,58.79-180.79a304.28,304.28,0,0,0-3.82-48.07A4.11,4.11,0,0,0,563.39,643.92Z"/><path class="a99ee698-222a-41f7-80c4-6641b79fb537" d="M609.28,420.64a8.2,8.2,0,0,0-11.73.38,347.89,347.89,0,0,1-81.13,65.26,8.31,8.31,0,0,1-8.4,0A347.72,347.72,0,0,1,426.88,421a8.2,8.2,0,0,0-11.73-.38A425.91,425.91,0,0,0,356,491.46a8.24,8.24,0,0,0-.07,9.05c40.53,62.39,91.49,119.43,151,169.52a8.28,8.28,0,0,0,10.66,0C577,619.94,628,562.91,668.5,500.52a8.22,8.22,0,0,0-.07-9A425.57,425.57,0,0,0,609.28,420.64Z"/></svg>