<svg xmlns="http://www.w3.org/2000/svg" viewBox="0 0 728.33 729.95"><defs><style>.a1bc2748-4c3d-4703-a23c-5895b9d111dd{fill:#39f;}.e05c0584-d991-4444-8d54-096259912bb9{fill:#06c;}</style></defs><g id="f175d13a-e002-4987-a571-e2e321884190" data-name="图层 2"><g id="e3ab651d-b1f9-4e4e-8451-274a0c2991f1" data-name="logo"><path class="a1bc2748-4c3d-4703-a23c-5895b9d111dd" d="M588,218.09a8.4,8.4,0,0,0,1.82-3A626.71,626.71,0,0,0,627.28,12.92,8.22,8.22,0,0,0,617.12,4.8q-45.72,11-93.36,18.1a8.21,8.21,0,0,0-6.79,10A255.1,255.1,0,0,1,519.84,135C475.5,87.08,425,42.4,369,1.58a8.21,8.21,0,0,0-9.69,0c-55.79,40.7-106.2,85.24-150.45,133a254.79,254.79,0,0,1,3-102,8.22,8.22,0,0,0-6.78-10q-47.64-7.12-93.45-18.34a8.23,8.23,0,0,0-10.19,8.11,626.61,626.61,0,0,0,37.44,202.8,8.34,8.34,0,0,0,1.59,2.67C52.92,338.82,2.44,476.07,0,621.67a8.22,8.22,0,0,0,9.93,8.17q66.69-14.22,136.35-23.09a8.23,8.23,0,0,0,6.93-10.32,270.55,270.55,0,0,1-9.66-71.55c0-121.9,82.28-261.59,208.93-330.23a24.49,24.49,0,0,1,23.35,0C502.48,263.29,584.76,403,584.76,524.88a270.56,270.56,0,0,1-9.77,72,8.22,8.22,0,0,0,6.91,10.33q69.66,9,136.48,23.4a8.22,8.22,0,0,0,10-8.15C726.05,476.65,675.63,339.25,588,218.09Z"/><path class="e05c0584-d991-4444-8d54-096259912bb9" d="M415.55,497.09Q392.24,520,366.8,541.21a4.15,4.15,0,0,1-5.29,0Q336.09,520,312.75,497.09a4.11,4.11,0,0,0-6.93,2.26A304.5,304.5,0,0,0,302,547.43c0,66.51,21.56,128.52,58.79,180.79a4.12,4.12,0,0,0,6.72,0C404.74,676,426.3,613.94,426.3,547.43a304.28,304.28,0,0,0-3.81-48.07A4.11,4.11,0,0,0,415.55,497.09Z"/><path class="e05c0584-d991-4444-8d54-096259912bb9" d="M461.45,273.81a8.2,8.2,0,0,0-11.73.38,348.09,348.09,0,0,1-81.13,65.26,8.33,8.33,0,0,1-8.41,0A347.93,347.93,0,0,1,279,274.18a8.2,8.2,0,0,0-11.73-.38,425.36,425.36,0,0,0-59.14,70.83,8.24,8.24,0,0,0-.08,9.05c40.53,62.39,91.5,119.43,151,169.52a8.27,8.27,0,0,0,10.65,0c59.47-50.09,110.43-107.12,151-169.51a8.24,8.24,0,0,0-.08-9A425,425,0,0,0,461.45,273.81Z"/></g></g></svg>