<?xml version="1.0" encoding="UTF-8"?>
<svg xmlns="http://www.w3.org/2000/svg" xmlns:xlink="http://www.w3.org/1999/xlink" width="24pt" height="24pt" viewBox="0 0 24 24" version="1.1">
<g id="surface5730976">
<path style=" stroke:none;fill-rule:nonzero;fill:rgb(100%,100%,100%);fill-opacity:1;" d="M 9.121094 2.878906 C 4.621094 2.878906 0.960938 6 0.960938 9.839844 C 0.960938 11.890625 1.949219 13.734375 3.75 15.066406 L 2.484375 18.867188 L 6.445312 16.414062 C 7.542969 16.761719 8.882812 16.882812 10.175781 16.738281 C 11.226562 18.773438 13.597656 20.160156 16.320312 20.160156 C 17.148438 20.160156 17.910156 20.003906 18.621094 19.792969 L 21.910156 21.632812 L 20.992188 18.488281 C 22.230469 17.460938 23.039062 16.03125 23.039062 14.398438 C 23.039062 11.417969 20.445312 9.042969 17.160156 8.691406 C 16.515625 5.351562 13.136719 2.878906 9.121094 2.878906 Z M 6.238281 6.71875 C 6.769531 6.71875 7.199219 7.152344 7.199219 7.679688 C 7.199219 8.207031 6.769531 8.640625 6.238281 8.640625 C 5.710938 8.640625 5.28125 8.207031 5.28125 7.679688 C 5.28125 7.152344 5.710938 6.71875 6.238281 6.71875 Z M 12 6.71875 C 12.527344 6.71875 12.960938 7.152344 12.960938 7.679688 C 12.960938 8.207031 12.527344 8.640625 12 8.640625 C 11.472656 8.640625 11.039062 8.207031 11.039062 7.679688 C 11.039062 7.152344 11.472656 6.71875 12 6.71875 Z M 16.320312 9.601562 C 19.558594 9.601562 22.078125 11.777344 22.078125 14.398438 C 22.078125 15.820312 21.355469 17.0625 20.160156 17.949219 L 19.894531 18.148438 L 20.332031 19.648438 L 18.769531 18.773438 L 18.566406 18.839844 C 17.898438 19.066406 17.128906 19.199219 16.320312 19.199219 C 13.082031 19.199219 10.558594 17.023438 10.558594 14.398438 C 10.558594 11.777344 13.082031 9.601562 16.320312 9.601562 Z M 14.160156 12.480469 C 13.777344 12.480469 13.441406 12.816406 13.441406 13.199219 C 13.441406 13.585938 13.777344 13.921875 14.160156 13.921875 C 14.542969 13.921875 14.878906 13.585938 14.878906 13.199219 C 14.878906 12.816406 14.542969 12.480469 14.160156 12.480469 Z M 18.480469 12.480469 C 18.09375 12.480469 17.761719 12.816406 17.761719 13.199219 C 17.761719 13.585938 18.09375 13.921875 18.480469 13.921875 C 18.863281 13.921875 19.199219 13.585938 19.199219 13.199219 C 19.199219 12.816406 18.863281 12.480469 18.480469 12.480469 Z M 18.480469 12.480469 "/>
</g>
</svg>
